<svg version="1.1" xmlns="http://www.w3.org/2000/svg" xmlns:xlink="http://www.w3.org/1999/xlink" width="464.12808" height="455.67178" viewBox="0,0,464.12808,455.67178"><g transform="translate(-35.57193,43.67178)"><g data-paper-data="{&quot;isPaintingLayer&quot;:true}" fill="#000000" fill-rule="nonzero" stroke="none" stroke-width="0" stroke-linecap="butt" stroke-linejoin="miter" stroke-miterlimit="10" stroke-dasharray="" stroke-dashoffset="0" style="mix-blend-mode: normal"><path d="M35.7,372.00001v-147h83v147z"/><path d="M35.57193,224.73096l40.72924,-41.40273l42.22608,41.5392l-40.72924,41.40273z"/><path d="M154.7,-8.67177v147h-83v-147z" data-paper-data="{&quot;index&quot;:null}"/><path d="M113.79802,97.05808l40.72924,41.40274l-42.22608,41.53919l-40.72924,-41.40273z" data-paper-data="{&quot;index&quot;:null}"/><path d="M136.57193,189.73096l40.72924,-41.40274l42.22608,41.5392l-40.72924,41.40274z"/><path d="M255.7,-43.67177v147h-83v-147z" data-paper-data="{&quot;index&quot;:null}"/><path d="M214.79802,62.05808l40.72924,41.40273l-42.22608,41.5392l-40.72924,-41.40274z" data-paper-data="{&quot;index&quot;:null}"/><path d="M336.57193,388.00001v-147h83v147z" data-paper-data="{&quot;index&quot;:null}"/><path d="M377.47392,282.27015l-40.72924,-41.40274l42.22608,-41.53919l40.72924,41.40274z" data-paper-data="{&quot;index&quot;:null}"/><path d="M383.57193,-41.67178v206h-83v-206z" data-paper-data="{&quot;index&quot;:null}"/><path d="M383.7,164.59727l-40.72924,41.40274l-42.22608,-41.5392l40.72924,-41.40273z" data-paper-data="{&quot;index&quot;:null}"/><path d="M416.57193,392.00001v-147h83v147z" data-paper-data="{&quot;index&quot;:null}"/><path d="M457.47392,286.27015l-40.72924,-41.40273l42.22609,-41.5392l40.72924,41.40273z" data-paper-data="{&quot;index&quot;:null}"/><path d="M463.57193,-35.67177v206h-83v-206z" data-paper-data="{&quot;index&quot;:null}"/><path d="M463.7,170.59728l-40.72924,41.40274l-42.22608,-41.5392l40.72924,-41.40274z" data-paper-data="{&quot;index&quot;:null}"/><path d="M203.90526,190.06429l40.72924,-41.40274l42.22609,41.5392l-40.72924,41.40273z"/><path d="M136.7,412.00001v-222h83v222z"/><path d="M203.36667,412.00001v-222h83v222z"/></g></g></svg>
